<?xml version="1.0" standalone="yes"?>
<svg xmlns="http://www.w3.org/2000/svg" width="512" height="512">
<path style="fill:#020202; stroke:none;" d="M0 0L0 512L512 512L512 0L0 0z"/>
<path style="fill:#7171c9; stroke:none;" d="M23 15L24 16L23 15z"/>
<path style="fill:#fed347; stroke:none;" d="M56 91C63.4848 87.2725 69.2402 79.9028 77 76.8542C88.4773 72.345 107.687 76 120 76C120.688 60.2191 129.769 45.2909 142 35.669C146.331 32.2618 159.525 28.1969 155.816 21.0394C150.934 11.6173 133.683 15 125 15L44 15C35.2946 15 20.5951 12.1237 16.2284 22.0401C14.476 26.0197 15 30.763 15 35C15 45.4973 10.6408 67.7185 21.0185 74.142C29.5735 79.4372 52.1141 69.797 55.5664 82.0154C56.3633 84.8362 55.9997 88.0984 56 91z"/>
<path style="fill:#7171c9; stroke:none;" d="M149 15L150 16L149 15z"/>
<path style="fill:#f878bd; stroke:none;" d="M365 15L365 131L408 131L408 15L365 15z"/>
<path style="fill:#7171c9; stroke:none;" d="M20 16L21 17L20 16z"/>
<path style="fill:#f878bd; stroke:none;" d="M151 16L152 17L151 16z"/>
<path style="fill:#7171c9; stroke:none;" d="M19 17L20 18L19 17M153 17L154 18L153 17M154 18L155 19L154 18M17 19L18 20L17 19M155 19L156 20L155 19M16 20L17 21L16 20M156 21L157 22L156 21M15 23L16 24L15 23M157.333 23.6667L157.667 24.3333L157.333 23.6667z"/>
<path style="fill:#f878bd; stroke:none;" d="M157.333 25.6667L157.667 26.3333L157.333 25.6667z"/>
<path style="fill:#7171c9; stroke:none;" d="M474.667 25.3333L475.333 25.6667L474.667 25.3333z"/>
<path style="fill:#fed347; stroke:none;" d="M474 26C471.484 30.7957 468.355 33.1494 463 34C466.438 39.2921 468.503 42.6089 467 49C473.558 47.1303 476.497 46.3549 483 49C482.208 42.2504 484.278 39.4717 488 34C482.205 33.4742 478.713 31.1716 476 26L474 26z"/>
<path style="fill:#f878bd; stroke:none;" d="M155 27L156 28L155 27z"/>
<path style="fill:#7171c9; stroke:none;" d="M156 27L157 28L156 27M473 27L474 28L473 27M476 27L477 28L476 27M153 28L154 29L153 28M151 29L152 30L151 29M472 29L473 30L472 29z"/>
<path style="fill:#f878bd; stroke:none;" d="M477 29L478 30L477 29z"/>
<path style="fill:#7171c9; stroke:none;" d="M149 30L150 31L149 30M478 30L479 31L478 30z"/>
<path style="fill:#f878bd; stroke:none;" d="M147 31L148 32L147 31z"/>
<path style="fill:#7171c9; stroke:none;" d="M479 31L480 32L479 31M469 32L470 33L469 32M480 32L481 33L480 32M144 33L145 34L144 33M464 33L464 34L467 34L464 33M483 33L483 34L486 34L483 33M143 34L144 35L143 34M462 34L463 35L462 34M463 35L464 36L463 35M140 36L141 37L140 36M464 36L465 37L464 36M139 37L140 38L139 37M465 37L466 38L465 37M138 38L139 39L138 38M173 38L173 39L182 39L173 38M466 38L467 39L466 38M137 39L138 40L137 39M167.667 39.3333L168.333 39.6667L167.667 39.3333z"/>
<path style="fill:#ddcee6; stroke:none;" d="M169 39.4645C115.146 49.1743 131.589 132.014 185 122.384C238.954 112.657 222.669 29.7881 169 39.4645z"/>
<path style="fill:#7171c9; stroke:none;" d="M185.667 39.3333L186.333 39.6667L185.667 39.3333M136 40L137 41L136 40M164 40L165 41L164 40M189.667 40.3333L190.333 40.6667L189.667 40.3333M467 40L468 41L467 40M135 41L136 42L135 41M161 41L162 42L161 41M192 41L193 42L192 41M482 41L482 46L483 46L482 41M134 42L135 43L134 42M159 42L160 43L159 42M195 42L196 43L195 42M133 43L134 44L133 43M157 43L158 44L157 43M197 43L198 44L197 43z"/>
<path style="fill:#f878bd; stroke:none;" d="M132 44L133 45L132 44z"/>
<path style="fill:#7171c9; stroke:none;" d="M155 44L156 45L155 44M198 44L199 45L198 44M153 45L154 46L153 45M200 45L201 46L200 45M467 45L467 48L468 48L467 45M152 46L153 47L152 46M473 46L473 47L477 47L473 46z"/>
<path style="fill:#f878bd; stroke:none;" d="M477 46L478 47L477 46z"/>
<path style="fill:#7171c9; stroke:none;" d="M130 47L131 48L130 47M174 47L175 48L174 47z"/>
<path style="fill:#020202; stroke:none;" d="M175.019 47.7824C168.458 50.0586 170 58.5741 170 64C170 79.1636 170.061 84.7634 182 94.9992C185.43 97.9399 189.974 102.736 194.981 101.062C198.781 99.7922 200.715 95.777 199.392 92C197.09 85.4277 189.222 82.6592 185.603 76.9962C181.845 71.1135 188.934 42.9548 175.019 47.7824z"/>
<path style="fill:#7171c9; stroke:none;" d="M179.667 47.3333L180.333 47.6667L179.667 47.3333M203 47L204 48L203 47M479 47L480 48L479 47z"/>
<path style="fill:#f878bd; stroke:none;" d="M129 48L130 49L129 48z"/>
<path style="fill:#7171c9; stroke:none;" d="M149 48L150 49L149 48M172 48L173 49L172 48M204 48L205 49L204 48M469 48L470 49L469 48M481 48L482 49L481 48M148 49L149 50L148 49M171 49L172 50L171 49M205 49L206 50L205 49M467 49L468 50L467 49M128 50L129 51L128 50M147 50L148 51L147 50M170 50L171 51L170 50M183 50L184 51L183 50M206 50L207 51L206 50M146 51L147 52L146 51M207 51L208 52L207 51M145 52L146 53L145 52M184 52L184 77L185 77L184 52M208 52L209 53L208 52M126 53L127 54L126 53M169 53L169 82L170 82L169 53M209 53L210 54L209 53M210 54L211 55L210 54M125 55L126 56L125 55M142 56L143 57L142 56M124 57L125 58L124 57M212 57L213 58L212 57M140 59L141 60L140 59M213 59L214 60L213 59M123 60L124 61L123 60M214 60L215 61L214 60M139 61L140 62L139 61z"/>
<path style="fill:#f878bd; stroke:none;" d="M122 62L123 63L122 62z"/>
<path style="fill:#7171c9; stroke:none;" d="M215 62L216 63L215 62M122 63L123 64L122 63M138 63L139 64L138 63M216.333 64.6667L216.667 65.3333L216.333 64.6667M137 65L138 66L137 65M121 66L122 67L121 66M15 67L16 68L15 67M217.333 67.6667L217.667 68.3333L217.333 67.6667z"/>
<path style="fill:#fed347; stroke:none;" d="M276 67L276 131L319 131L319 67L276 67z"/>
<path style="fill:#7171c9; stroke:none;" d="M136 68L137 69L136 68M120.333 70.6667L120.667 71.3333L120.333 70.6667M17 71L18 72L17 71M218.333 71.6667L218.667 72.3333L218.333 71.6667z"/>
<path style="fill:#f878bd; stroke:none;" d="M18 72L19 73L18 72z"/>
<path style="fill:#7171c9; stroke:none;" d="M135.333 72.6667L135.667 73.3333L135.333 72.6667M19 73L20 74L19 73M23 75L24 76L23 75M51 76L52 77L51 76z"/>
<path style="fill:#f878bd; stroke:none;" d="M76 76L77 77L76 76z"/>
<path style="fill:#7171c9; stroke:none;" d="M219 76L219 86L220 86L219 76M53 77L54 78L53 77M54 78L55 79L54 78z"/>
<path style="fill:#f878bd; stroke:none;" d="M73 78L74 79L73 78z"/>
<path style="fill:#7171c9; stroke:none;" d="M72 79L73 80L72 79M55 80L56 81L55 80M134.333 80.6667L134.667 81.3333L134.333 80.6667M188 80L189 81L188 80z"/>
<path style="fill:#f878bd; stroke:none;" d="M69 81L70 82L69 81z"/>
<path style="fill:#7171c9; stroke:none;" d="M189 81L190 82L189 81M68 82L69 83L68 82M190 82L191 83L190 82M65 84L66 85L65 84M170 84L171 85L170 84M64 85L65 86L64 85M194 85L195 86L194 85M195 86L196 87L195 86M61 87L62 88L61 87M173 87L174 88L173 87M196 87L197 88L196 87M60 88L61 89L60 88M135.333 88.6667L135.667 89.3333L135.333 88.6667M174 88L175 89L174 88M197 88L198 89L197 88M175 89L176 90L175 89M198 89L199 90L198 89M218.333 89.6667L218.667 90.3333L218.333 89.6667M57 90L58 91L57 90M199 90L200 91L199 90M136.333 92.6667L136.667 93.3333L136.333 92.6667M179 92L180 93L179 92M200 92L200 96L201 96L200 92M180 93L181 94L180 93M217.333 93.6667L217.667 94.3333L217.333 93.6667M181 94L182 95L181 94M137.333 95.6667L137.667 96.3333L137.333 95.6667M216 96L217 97L216 96M138 98L139 99L138 98M186 98L187 99L186 98M215 98L216 99L215 98M187 99L188 100L187 99M198 99L199 100L198 99M139 100L140 101L139 100M188 100L189 101L188 100M190 101L191 102L190 101M194.667 101.333L195.333 101.667L194.667 101.333M140 102L141 103L140 102M213 102L214 103L213 102M212 104L213 105L212 104M142 105L143 106L142 105M211 105L212 106L211 105M143 106L144 107L143 106M453 106L453 131L454 131L453 106z"/>
<path style="fill:#ddcee6; stroke:none;" d="M454 106L454 131L496 131L496 106L454 106z"/>
<path style="fill:#7171c9; stroke:none;" d="M496 106L496 131L497 131L496 106M209 108L210 109L209 108M208 109L209 110L208 109M146 110L147 111L146 110M207 110L208 111L207 110M147 111L148 112L147 111M206 111L207 112L206 111M205 112L206 113L205 112M204 113L205 114L204 113M151 114L152 115L151 114M152 115L153 116L152 115M201 115L202 116L201 115M200 116L201 117L200 116M155 117L156 118L155 117M198 117L199 118L198 117M157 118L158 119L157 118M196 118L197 119L196 118M159 119L160 120L159 119M194 119L195 120L194 119M161 120L162 121L161 120M192 120L193 121L192 120M164 121L165 122L164 121M189 121L190 122L189 121M168.667 122.333L169.333 122.667L168.667 122.333M184 122L184 123L187 123L184 122M175 123L175 124L180 124L175 123M89 172.425C76.9283 174.068 67.4003 179.11 56 182.543C52.193 183.69 49.6161 180.899 46 181.226C40.9797 181.68 35.1177 188.347 32.1667 192C28.2474 196.852 32.7064 201.605 29.9414 207C18.4492 229.422 11.237 250.495 17.2361 276C28.295 323.017 81.412 354.389 127 333.688C136.427 329.407 165.225 310.288 147.945 298.742C136.92 291.376 123.777 310.121 114 313.771C91.8709 322.031 66.711 312.49 51.9236 294.985C20.15 257.373 45.6536 199.771 94 195.17C103.333 194.282 113.609 196.948 122 200.89C128.038 203.726 134.95 209.536 141.957 205.821C152.71 200.119 146.619 188.36 139 183.619C124.727 174.738 105.753 170.145 89 172.425M198.001 172.653C184.996 176.752 189 197.594 189 208L189 301C189 310.659 185.725 327.976 192.43 335.867C198.463 342.967 209.17 339.55 211.442 330.996C214.865 318.108 206.663 298.814 213.179 287.105C219.285 276.133 228.9 290.164 233.155 295C243.635 306.91 253.782 319.11 264.285 331C268.46 335.726 274.017 341.719 280.996 339.103C289.762 335.816 289.201 325.349 284.471 319C276.385 308.148 266.695 298.255 257.87 288C255.052 284.726 249.21 279.779 249.546 275.001C250.045 267.917 261.078 265.587 266 262.532C275.343 256.734 282.381 247.325 285.921 237C294.382 212.322 281.087 184.887 257 175.464C245.513 170.97 233.07 172 221 172C213.906 172 204.815 170.505 198.001 172.653M500 300L496 275C484.2 273.685 484.818 260.245 482.999 251C479.073 231.046 475.239 211.035 471.75 191C470.333 182.86 467.737 173.476 458 172.229C447.357 170.867 442.974 180.611 440.579 189C434.689 209.631 429.154 230.363 423.29 251C421.551 257.121 418.514 279.433 408.055 274.638C401.749 271.747 400.547 259.952 398.86 254C393.372 234.641 387.628 215.36 382.14 196C379.39 186.297 376.907 172.187 364 172.187C349.319 172.187 348.851 190.387 347.08 201C341.565 234.052 335.13 266.952 329.586 300C327.934 309.848 319.598 331.086 331.094 337.311C342.821 343.661 347.331 329.51 348.753 321C351.877 302.3 355.505 283.679 358.75 265C359.728 259.373 359.94 248.457 367.997 248.457C376.659 248.457 378.391 264.829 380.14 271C384.776 287.356 389.594 303.66 394.291 320C396.503 327.697 398.443 336.288 407 339.145C414.889 341.779 422.216 336.184 424.906 329C432.242 309.409 436.229 288.109 442 268C443.657 262.225 444.756 249.892 452.015 248.492C461.735 246.619 462.332 262.944 463.424 269C466.734 287.345 470.082 305.734 473.801 324C475.26 331.168 477.999 339.246 486.999 338.486C507.994 336.713 485.253 307.05 500 300z"/>
<path style="fill:#020202; stroke:none;" d="M218.015 195.573C207.62 198.651 212 223.433 212 232C212 235.739 211.217 240.66 213.603 243.852C218.265 250.088 240.229 247.967 247 245.956C264.881 240.646 272.431 218.348 259.532 204.174C250.612 194.371 230.449 191.89 218.015 195.573z"/>
<path style="fill:#ddcee6; stroke:none;" d="M34 382C33.9501 388.028 35.3383 399.785 32.8179 405C29.5209 411.822 19.4635 416.65 17.8133 424C16.8605 428.243 21.001 436.189 23.0548 439.852C27.2318 447.301 42.9392 440.528 49.8302 446.394C55.212 450.976 64.9426 459.344 67.3966 466C69.6484 472.107 65.3777 481.064 69.0278 486.582C71.1144 489.736 76.6951 490.877 80 492.28C82.1476 493.192 84.5862 494.535 87 494.353C93.8711 493.835 98.3352 484.105 104 480.873C109.104 477.96 122.982 478.938 129 479.198C138.06 479.59 141.353 490.768 149 493.868C153.27 495.599 163.107 490.978 166.682 488.468C172.104 484.66 167.91 471.795 169.573 466C171.531 459.171 179.599 453.068 184.424 448.108C192.743 439.556 202.493 446.513 211.775 442.397C215.936 440.551 218.888 431.154 219.848 427C221.701 418.978 209.457 413.011 205.742 407C201.829 400.668 204 389.213 204 382L176 382C176.665 397.497 175.921 410.473 167.135 424C133.364 475.99 50.7841 442.413 62 382L34 382M77 382C76.5045 393.541 75.865 403.459 81.8789 414C94.6667 436.414 126.074 442.353 145.999 425.674C155.486 417.734 160.941 406.337 160.999 394C161.014 390.945 161.974 385.225 159.258 383.028C155.087 379.653 142.202 382 137 382L77 382z"/>
<path style="fill:#7171c9; stroke:none;" d="M160.333 382.667L160.667 383.333L160.333 382.667M175 382L176 383L175 382M423.667 382.333L424.333 382.667L423.667 382.333z"/>
<path style="fill:#f878bd; stroke:none;" d="M425 382.479C409.201 384.936 404.339 400.292 409.101 414C413.599 426.95 425.647 436.903 437 443.796C441.364 446.445 447.625 451.139 453 450.505C457.898 449.926 462.922 446.119 467 443.575C482.588 433.852 510.823 405.8 489.906 387.34C482.85 381.114 471.501 380.655 464.015 386.419C460.23 389.332 456.632 396.575 451.001 395.712C440.787 394.147 438.107 380.441 425 382.479z"/>
<path style="fill:#7171c9; stroke:none;" d="M430.667 382.333L431.333 382.667L430.667 382.333M472.667 382.333L473.333 382.667L472.667 382.333M479.667 382.333L480.333 382.667L479.667 382.333M420 383L421 384L420 383M434 383L435 384L434 383M469 383L470 384L469 383M483 383L484 384L483 383M33 384L33 390L34 390L33 384M61 384L61 389L62 389L61 384M417 384L418 385L417 384M76 385L76 388L77 388L76 385M204 385L204 398L205 398L204 385M438 385L439 386L438 385M487 385L488 386L487 385M161 387L161 398L162 398L161 387M176 387L176 398L177 398L176 387M413 387L414 388L413 387M462 387L463 388L462 387M412 388L413 389L412 388M461 388L462 389L461 388M411 389L412 390L411 389M444 391L445 392L444 391M493 391L494 392L493 391M409 392L410 393L409 392M458 392L459 393L458 392M457 393L458 394L457 393M408 394L409 395L408 394M456 394L457 395L456 394M448 395L449 396L448 395M495 395L496 396L495 395M451.667 396.333L452.333 396.667L451.667 396.333M61 397L61 401L62 401L61 397M76 397L76 400L77 400L76 397M407.333 397.667L407.667 398.333L407.333 397.667M33 398L33 405L34 405L33 398M496 398L497 399L496 398M160.333 401.667L160.667 402.333L160.333 401.667M175 402L175 405L176 405L175 402M77 403L78 404L77 403M62.3333 404.667L62.6667 405.333L62.3333 404.667M159 405L160 406L159 405M204 405L205 406L204 405M32 406L33 407L32 406M78 406L79 407L78 406M496.333 406.667L496.667 407.333L496.333 406.667M174.333 407.667L174.667 408.333L174.333 407.667M205 407L206 408L205 407M407.333 407.667L407.667 408.333L407.333 407.667M63.3333 408.667L63.6667 409.333L63.3333 408.667M158 408L159 409L158 408M206 408L207 409L206 408M79 409L80 410L79 409M207 409L208 410L207 409M157 410L158 411L157 410M173.333 410.667L173.667 411.333L173.333 410.667M208 410L209 411L208 410M64.3333 411.667L64.6667 412.333L64.3333 411.667M80 411L81 412L80 411M209 411L210 412L209 411M495 411L496 412L495 411M210 412L211 413L210 412M408 412L409 413L408 412M26 413L27 414L26 413M81 413L82 414L81 413M172.333 413.667L172.667 414.333L172.333 413.667M211 413L212 414L211 413M25 414L26 415L25 414M65 414L66 415L65 414M155 414L156 415L155 414M212 414L213 415L212 414M24 415L25 416L24 415M82 415L83 416L82 415M213 415L214 416L213 415M23 416L24 417L23 416M66 416L67 417L66 416M83 416L84 417L83 416M154 416L155 417L154 416M171 416L172 417L171 416M214 416L215 417L214 416M493 416L494 417L493 416M22 417L23 418L22 417M153 417L154 418L153 417M215 417L216 418L215 417M410 417L411 418L410 417M21 418L22 419L21 418M170 418L171 419L170 418M20 419L21 420L20 419M67 419L68 420L67 419M85 419L86 420L85 419M19 420L20 421L19 420M68 420L69 421L68 420M86 420L87 421L86 420M151 420L152 421L151 420M169 420L170 421L169 420M18 421L19 422L18 421M150 421L151 422L150 421z"/>
<path style="fill:#fed347; stroke:none;" d="M345 421C344.984 445.792 322.829 429.422 309.105 438.09C305.23 440.537 304.144 444.687 304.015 449C303.686 460.052 300.188 481.059 305.318 490.956C310.647 501.238 333.41 497 343 497L409 497C417.965 497 430.566 499.249 438.985 495.852C446.821 492.689 449.924 471.919 444.397 465.637C439.815 460.431 430.692 457.651 425 453.572C418.489 448.906 411.897 439.606 404.715 436.603C394.244 432.227 379.16 437.752 368 435.772C359.555 434.274 352.336 425.18 345 421z"/>
<path style="fill:#7171c9; stroke:none;" d="M346 421L347 422L346 421M490 421L491 422L490 421M17 422L18 423L17 422M69 422L70 423L69 422M149 422L150 423L149 422M347 422L348 423L347 422M413 422L414 423L413 422M16.3333 423.667L16.6667 424.333L16.3333 423.667M148 423L149 424L148 423M167 423L168 424L167 423M70 424L71 425L70 424M147 424L148 425L147 424M350 424L351 425L350 424M488 424L489 425L488 424M71 425L72 426L71 425M91 425L92 426L91 425M146 425L147 426L146 425M166 425L167 426L166 425M220 425L221 426L220 425M351 425L352 426L351 425M487 425L488 426L487 425M17 426L18 427L17 426M92 426L93 427L92 426M165 426L166 427L165 426M416 426L417 427L416 426M143 427L144 428L143 427M354 427L355 428L354 427M417 427L418 428L417 427M18.3333 428.667L18.6667 429.333L18.3333 428.667M73 428L74 429L73 428M95 428L96 429L95 428M142 428L143 429L142 428M219 428L220 429L219 428M355 428L356 429L355 428M418 428L419 429L418 428M74 429L75 430L74 429M140 429L141 430L140 429M163 429L164 430L163 429M98 430L99 431L98 430M162 430L163 431L162 430M218 430L219 431L218 430M344 430L345 431L344 430M358 430L359 431L358 430M19 431L20 432L19 431M100 431L101 432L100 431M161 431L162 432L161 431M359 431L360 432L359 431M102 432L103 433L102 432M134 432L135 433L134 432M160 432L161 433L160 432M343 432L344 433L343 432M20 433L21 434L20 433M105 433L106 434L105 433M131.667 433.333L132.333 433.667L131.667 433.333M159 433L160 434L159 433M217 433L218 434L217 433M362 433L363 434L362 433M423 433L424 434L423 433M109 434L110 435L109 434M128 434L129 435L128 434M158 434L159 435L158 434M363 434L364 435L363 434M424 434L425 435L424 434M114 435L114 436L124 436L114 435M157 435L158 436L157 435M216 435L217 436L216 435M340 435L341 436L340 435M365 435L366 436L365 435M425 435L426 436L425 435M21 436L22 437L21 436M81 436L82 437L81 436M156 436L157 437L156 436M311.667 436.333L312.333 436.667L311.667 436.333M82 437L83 438L82 437M155 437L156 438L155 437M215 437L216 438L215 437M309 437L310 438L309 437z"/>
<path style="fill:#f878bd; stroke:none;" d="M406 437L407 438L406 437z"/>
<path style="fill:#7171c9; stroke:none;" d="M475 437L476 438L475 437M22 438L23 439L22 438M83 438L84 439L83 438M407 438L408 439L407 438M429 438L430 439L429 438M152 439L153 440L152 439M408 439L409 440L408 439M86 440L87 441L86 440M151 440L152 441L151 440M214 440L215 441L214 440M409 440L410 441L409 440M471 440L472 441L471 440M23 441L24 442L23 441M149 441L150 442L149 441z"/>
<path style="fill:#f878bd; stroke:none;" d="M305 441L306 442L305 441z"/>
<path style="fill:#7171c9; stroke:none;" d="M410 441L411 442L410 441M433 441L434 442L433 441M89 442L90 443L89 442M148 442L149 443L148 442M213 442L214 443L213 442M411 442L412 443L411 442M468 442L469 443L468 442M25 443L25 444L46 444L25 443M91 443L92 444L91 443M146 443L147 444L146 443M191 443L191 444L213 444L191 443z"/>
<path style="fill:#f878bd; stroke:none;" d="M304 443L305 444L304 443z"/>
<path style="fill:#7171c9; stroke:none;" d="M412 443L413 444L412 443M436 443L437 444L436 443M93 444L94 445L93 444M144 444L145 445L144 444M413 444L414 445L413 444M438 444L439 445L438 444M465 444L466 445L465 444M49 445L50 446L49 445M95 445L96 446L95 445M142 445L143 446L142 445M186 445L187 446L186 445M414 445L415 446L414 445M463 445L464 446L463 445M50 446L51 447L50 446M97 446L98 447L97 446M139.667 446.333L140.333 446.667L139.667 446.333M185 446L186 447L185 446M303 446L303 487L304 487C304 475.304 307.511 456.75 303 446z"/>
<path style="fill:#f878bd; stroke:none;" d="M415 446L416 447L415 446z"/>
<path style="fill:#7171c9; stroke:none;" d="M441 446L442 447L441 446M51 447L52 448L51 447M100 447L101 448L100 447M137 447L138 448L137 447M184 447L185 448L184 447M443 447L444 448L443 447M460 447L461 448L460 447M103.667 448.333L104.333 448.667L103.667 448.333M133.667 448.333L134.333 448.667L133.667 448.333M445 448L446 449L445 448M458 448L459 449L458 448M107.667 449.333L108.333 449.667L107.667 449.333M128 449L128 450L131 450L128 449M419 449L420 450L419 449M447 449L448 450L447 449M456 449L457 450L456 449M53 450L54 451L53 450M113 450L113 451L125 451L113 450M420 450L421 451L420 450M449 450L450 451L449 450M454 450L455 451L454 450M54 451L55 452L54 451M181 451L182 452L181 451M451.667 451.333L452.333 451.667L451.667 451.333M55 452L56 453L55 452M180 452L181 453L180 452M423 452L424 453L423 452M56 453L57 454L56 453M179 453L180 454L179 453z"/>
<path style="fill:#f878bd; stroke:none;" d="M424 453L425 454L424 453z"/>
<path style="fill:#7171c9; stroke:none;" d="M57 454L58 455L57 454M178 454L179 455L178 454M58 455L59 456L58 455M177 455L178 456L177 455M427 455L428 456L427 455M59 456L60 457L59 456M176 456L177 457L176 456M429 456L430 457L429 456M60 457L61 458L60 457M175 457L176 458L175 457z"/>
<path style="fill:#f878bd; stroke:none;" d="M430 457L431 458L430 457z"/>
<path style="fill:#7171c9; stroke:none;" d="M61 458L62 459L61 458M432 458L433 459L432 458M62 459L63 460L62 459M434 459L435 460L434 459M63 460L64 461L63 460M437 461L438 462L437 461M170 462L171 463L170 462M439 462L440 463L439 462M441 463L442 464L441 463M67.3333 464.667L67.6667 465.333L67.3333 464.667M443 464L444 465L443 464M169 465L169 487L170 487L169 465M445 465L446 466L445 465M446 466L446 486L447 486L446 466M106 479L106 480L110 480L106 479M125 479L125 480L133 480L125 479M103 480L104 481L103 480M134 480L135 481L134 480M102 481L103 482L102 481M135 481L136 482L135 481M136 482L137 483L136 482M137 483L138 484L137 483M138 484L139 485L138 484M139 485L140 486L139 485M140 486L141 487L140 486M68 487L69 488L68 487M141 487L142 488L141 487M70 488L71 489L70 488M142 488L143 489L142 488M167 488L168 489L167 488M73 489L74 490L73 489M143 489L144 490L143 489M164 489L165 490L164 489z"/>
<path style="fill:#f878bd; stroke:none;" d="M304 489L305 490L304 489z"/>
<path style="fill:#7171c9; stroke:none;" d="M445 489L446 490L445 489M75 490L76 491L75 490M144 490L145 491L144 490M162 490L163 491L162 490M77.6667 491.333L78.3333 491.667L77.6667 491.333M145 491L146 492L145 491M159 491L160 492L159 491M444 491L445 492L444 491M80 492L81 493L80 492M146 492L147 493L146 492M157 492L158 493L157 492M82 493L83 494L82 493M147 493L148 494L147 493M154.667 493.333L155.333 493.667L154.667 493.333M84.6667 494.333L85.3333 494.667L84.6667 494.333M148 494L149 495L148 494M152 494L153 495L152 494M87 495L88 496L87 495M149.667 495.333L150.333 495.667L149.667 495.333M309 495L310 496L309 495M440 495L441 496L440 495M311 496L312 497L311 496z"/>
<path style="fill:#f878bd; stroke:none;" d="M312 496L313 497L312 496M437 496L438 497L437 496z"/>
<path style="fill:#7171c9; stroke:none;" d="M438 496L439 497L438 496z"/>
</svg>
